#N canvas 1442 238 450 870 10;
#X obj 64 56 print;
#X floatatom 209 75 5 0 0 0 - - -, f 5;
#X obj 104 22 netreceive 7780;
#X obj 227 48 tgl 15 0 empty empty empty 17 7 0 10 -262144 -1 -1 0
1;
#X text 246 45 <--connection status;
#X obj 102 104 route Start note volume;
#X floatatom 55 154 7 0 0 0 - - -, f 7;
#X obj 21 372 noteout;
#X obj 121 300 makenote;
#X obj 68 256 f;
#X floatatom 159 262 5 0 0 0 - - -, f 5;
#X floatatom 195 263 5 0 0 0 - - -, f 5;
#X obj 111 180 bng 15 250 50 0 empty empty empty 17 7 0 10 -262144
-1 -1;
#X floatatom 185 147 5 0 0 0 - - -, f 5;
#X obj 112 0 bng 15 250 50 0 empty empty empty 17 7 0 10 -262144 -1
-1;
#X obj 366 124 ctlout 1;
#X floatatom 366 95 0 0 0 0 - - -;
#X obj 154 231 * 100;
#X obj 205 214 * 1.76;
#X obj 180 515 pack 0 0;
#X floatatom 215 489 5 0 0 0 - - -, f 5;
#X obj 113 580 print;
#X obj 179 491 f;
#X obj 296 376 nbx 5 14 -1e+037 1e+037 0 0 empty empty empty 0 -8 0
10 -262144 -1 -1 114 256;
#X obj 178 468 bng 15 250 50 0 empty empty empty 17 7 0 10 -262144
-1 -1;
#X obj 190 588 f;
#X obj 191 560 bng 15 250 50 0 empty empty empty 17 7 0 10 -262144
-1 -1;
#X msg 281 548 1;
#X floatatom 337 667 5 0 0 0 - - -, f 5;
#X obj 228 682 print;
#X obj 83 657 bng 15 250 50 0 empty empty empty 17 7 0 10 -262144 -1
-1;
#X msg 60 623 0;
#X msg 98 623 -1;
#X obj 275 608 expr if($f1 == 1 \, 1 \, 0) \;;
#X msg 294 477 -1;
#X obj 191 613 pack 0 0;
#X connect 2 0 0 0;
#X connect 2 0 5 0;
#X connect 2 1 1 0;
#X connect 2 1 3 0;
#X connect 5 1 6 0;
#X connect 5 2 13 0;
#X connect 6 0 9 1;
#X connect 6 0 23 0;
#X connect 8 0 7 0;
#X connect 8 0 21 0;
#X connect 8 1 7 1;
#X connect 9 0 8 0;
#X connect 10 0 8 1;
#X connect 11 0 8 2;
#X connect 12 0 9 0;
#X connect 13 0 12 0;
#X connect 13 0 17 0;
#X connect 13 0 18 0;
#X connect 16 0 15 0;
#X connect 17 0 10 0;
#X connect 18 0 11 0;
#X connect 19 0 21 0;
#X connect 19 0 7 0;
#X connect 20 0 19 1;
#X connect 22 0 19 0;
#X connect 23 0 22 1;
#X connect 23 0 25 1;
#X connect 24 0 22 0;
#X connect 25 0 35 0;
#X connect 26 0 25 0;
#X connect 27 0 33 0;
#X connect 30 0 29 0;
#X connect 31 0 30 0;
#X connect 32 0 30 0;
#X connect 33 0 29 0;
#X connect 35 0 7 0;
#X connect 35 0 21 0;
