#N canvas 1181 180 450 734 10;
#X msg 48 15 connect localhost 13001;
#X obj 48 106 netsend;
#X floatatom 47 128 5 0 0 0 - - -, f 5;
#X floatatom 101 42 5 0 0 0 - - -, f 5;
#X obj 268 135 netreceive 13001;
#X obj 142 198 print received;
#X msg 101 61 send MyVar1 \$1;
#X obj 253 199 route MyVar1 MyVar2;
#X floatatom 252 240 5 0 0 0 - - -, f 5;
#X floatatom 308 237 5 0 0 0 - - -, f 5;
#X floatatom 387 210 5 0 0 0 - - -, f 5;
#X floatatom 202 42 5 0 0 0 - - -, f 5;
#X msg 205 63 send MyVar2 \$1;
#X obj 308 272 mtof;
#X obj 310 313 osc~;
#X obj 308 389 dac~;
#X connect 0 0 1 0;
#X connect 1 0 2 0;
#X connect 3 0 6 0;
#X connect 4 0 5 0;
#X connect 4 0 7 0;
#X connect 4 1 10 0;
#X connect 6 0 1 0;
#X connect 7 0 8 0;
#X connect 7 1 9 0;
#X connect 9 0 13 0;
#X connect 11 0 12 0;
#X connect 12 0 1 0;
#X connect 13 0 14 0;
#X connect 14 0 15 0;
#X connect 14 0 15 1;
