#N canvas 815 68 1091 863 10;
#X obj 6 48 print;
#X floatatom 151 67 5 0 0 0 - - -, f 5;
#X obj 92 473 mtof;
#X floatatom 108 336 12 0 0 0 - - -, f 12;
#X obj 97 573 osc~;
#X obj 46 14 netreceive 7780;
#X obj 169 40 tgl 15 0 empty empty empty 17 7 0 10 -262144 -1 -1 0
1;
#X text 188 37 <--connection status;
#X msg 14 91 60;
#X msg 14 111 62;
#X msg 14 131 64;
#X msg 14 150 65;
#X msg 15 169 67;
#X msg 15 189 69;
#X msg 15 209 71;
#X msg 15 228 72;
#X obj 22 654 dbtorms;
#X obj 22 727 line~;
#X obj 59 784 *~;
#X obj 59 814 dac~;
#X obj 22 684 pack 0 50;
#X obj 149 783 *~;
#X obj 22 628 r \$0-master-out;
#X obj 80 734 hip~ 3;
#X obj 142 734 hip~ 3;
#X obj 272 684 t b;
#X obj 272 631 f;
#X obj 272 709 f;
#X msg 386 708 0;
#X obj 272 661 moses 1;
#X obj 386 680 t b f;
#X obj 352 641 moses 1;
#X msg 207 604 \; pd dsp 1;
#X floatatom 204 503 3 0 100 0 dB - -, f 3;
#X obj 258 534 bng 15 250 50 0 empty empty mute -38 7 0 12 -262144
-1 -1;
#X obj 228 471 r \$0-master-lvl;
#X obj 272 735 s \$0-master-lvl;
#X obj 231 573 s \$0-master-out;
#X obj 352 612 r \$0-master-out;
#X obj 165 258 * 4.5;
#X floatatom 94 306 7 0 0 0 - - -, f 7;
#X obj 45 88 route Start note volume;
#N canvas 512 137 853 523 (subpatch) 0;
#X array table10 259 float 1;
#A 0 0 0 0 0 0 0 0 0 0 0 0 0 0 0 0 0 0 0 0 0 0 0 0 0 0 0 0 0 0 0 0
0 0 0 0 0 0 0 0 0 0 0 0 0 0 0 0 0 0 0 0 0 0 0 0 0 0 0 0 0 0 0 0 0 0
0 0 0 0 0 0 0 0 0 0 0 0 0 0 0 0 0 0 0 0 0 0 0 0 0 0 0 0 0 0 0 0 0 0
0 0 0 0 0 0 0 0 0 0 0 0 0 0 0 0 0 0 0 0 0 0 0 0 0 0 0 0 0 0 0 0 0 0
0 0 0 0 0 0 0 0 0 0 0 0 0 0 0 0 0 0 0 0 0 0 0 0 0 0 0 0 0 0 0 0 0 0
0 0 0 0 0 0 0 0 0 0 0 0 0 0 0 0 0 0 0 0 0 0 0 0 0 0 0 0 0 0 0 0 0 0
0 0 0 0 0 0 0 0 0 0 0 0 0 0 0 0 0 0 0 0 0 0 0 0 0 0 0 0 0 0 0 0 0 0
0 0 0 0 0 0 0 0 0 0 0 0 0 0 0 0 0 0 0 0 0 0 0 0;
#X coords 0 1.02 258 -1.02 258 130 1;
#X restore 422 144 graph;
#X msg 422 294 \; table10 const 0;
#X text 583 303 CLEAR TABLE;
#X obj 21 518 tabosc4~ table10;
#X msg 420 334 \; table10 cosinesum 256 0.2 -0.2 0.2 -0.2 0.2 -0.2
0.2;
#X msg 420 381 \; table10 cosinesum 256 -0.5 0 0;
#X msg 420 426 \; table10 sinesum 256 1 1 1 1 0 0 0 0 1 0 0 0 0 0 0
1 0 0 0 0 0 0 1 0 0 0 0 0 0 1 0 0 0 0 1 0 0 0 0 0 1 0 0 0 0 1 \, normalize
0.4;
#X msg 419 493 \; table10 sinesum 256 0 0 0 0 0 0 0 0 0 0 0 0 0 0 0
0 0 0 0 0 0 0 0 0 0 0 0 0 0 0 0 0 0 0 0 0 0 0 0 0 0 0 0 0 0 1 \, normalize
0.2;
#X msg 686 287 \; table10 sinesum 64 1;
#X connect 2 0 3 0;
#X connect 2 0 4 0;
#X connect 2 0 45 0;
#X connect 5 0 0 0;
#X connect 5 0 41 0;
#X connect 5 1 1 0;
#X connect 5 1 6 0;
#X connect 8 0 2 0;
#X connect 9 0 2 0;
#X connect 10 0 2 0;
#X connect 11 0 2 0;
#X connect 12 0 2 0;
#X connect 13 0 2 0;
#X connect 14 0 2 0;
#X connect 15 0 2 0;
#X connect 16 0 20 0;
#X connect 17 0 21 0;
#X connect 17 0 18 0;
#X connect 18 0 19 0;
#X connect 20 0 17 0;
#X connect 21 0 19 1;
#X connect 22 0 16 0;
#X connect 23 0 18 1;
#X connect 24 0 21 1;
#X connect 25 0 27 0;
#X connect 26 0 29 0;
#X connect 27 0 36 0;
#X connect 28 0 36 0;
#X connect 29 0 25 0;
#X connect 29 1 30 0;
#X connect 30 0 28 0;
#X connect 31 1 27 1;
#X connect 33 0 32 0;
#X connect 33 0 37 0;
#X connect 34 0 26 0;
#X connect 35 0 33 0;
#X connect 38 0 26 1;
#X connect 38 0 31 0;
#X connect 39 0 33 0;
#X connect 40 0 2 0;
#X connect 41 0 2 0;
#X connect 41 1 40 0;
#X connect 41 2 39 0;
#X connect 45 0 23 0;
#X connect 45 0 24 0;
#X coords 0 0 1 1 85 60 0;
